<svg width="77" height="73" viewBox="0 0 77 73" fill="none" xmlns="http://www.w3.org/2000/svg">
<path d="M24.8 46.186C25.124 46.306 25.55 46.366 26.078 46.366C26.606 46.366 27.02 46.216 27.32 45.916C27.632 45.604 27.788 45.052 27.788 44.26C27.788 43.456 27.776 42.604 27.752 41.704C27.728 40.804 27.692 39.784 27.644 38.644C27.596 37.492 27.56 36.598 27.536 35.962C27.176 35.914 26.648 35.77 25.952 35.53L26.006 34.9H30.506C30.71 35.284 30.812 35.644 30.812 35.98C30.668 36.028 30.188 36.052 29.372 36.052C29.348 37.12 29.318 38.638 29.282 40.606C29.258 42.574 29.24 43.87 29.228 44.494C29.204 45.514 28.958 46.312 28.49 46.888C28.034 47.452 27.362 47.734 26.474 47.734C25.826 47.734 25.16 47.644 24.476 47.464C23.792 47.284 23.33 47.104 23.09 46.924C23.102 46.012 23.198 45.028 23.378 43.972C23.57 43.888 23.924 43.846 24.44 43.846L24.8 46.186ZM36.1556 46.636C37.1636 46.636 37.8416 46.324 38.1896 45.7C38.5496 45.064 38.7296 44.164 38.7296 43C38.7296 41.152 38.3216 39.994 37.5056 39.526C37.1696 39.334 36.6956 39.238 36.0836 39.238C35.4836 39.238 34.9136 39.364 34.3736 39.616C33.8936 40.54 33.6536 41.614 33.6536 42.838C33.6536 44.014 33.8096 44.92 34.1216 45.556C34.4816 46.276 35.1596 46.636 36.1556 46.636ZM31.9976 43C31.9976 41.476 32.3456 40.288 33.0416 39.436C33.7376 38.572 34.8116 38.14 36.2636 38.14C37.7156 38.14 38.7656 38.536 39.4136 39.328C40.0616 40.108 40.3856 41.266 40.3856 42.802C40.3856 44.338 40.0376 45.544 39.3416 46.42C38.6576 47.296 37.6136 47.734 36.2096 47.734C34.8056 47.734 33.7496 47.326 33.0416 46.51C32.3456 45.694 31.9976 44.524 31.9976 43ZM46.3272 46.312C46.6752 46.312 47.0652 46.24 47.4972 46.096C47.9292 45.94 48.2832 45.754 48.5592 45.538C48.5112 42.982 48.4692 41.044 48.4332 39.724C47.6892 39.724 47.1372 39.652 46.7772 39.508L46.8492 38.572C47.8692 38.392 48.6672 38.302 49.2432 38.302C49.8312 38.302 50.2032 38.314 50.3592 38.338C50.3592 38.554 50.3232 38.842 50.2512 39.202C50.1912 39.562 50.1492 39.76 50.1252 39.796L49.9092 46.222C50.5452 46.258 51.0612 46.33 51.4572 46.438L51.4212 47.356C50.8932 47.524 50.3832 47.608 49.8912 47.608C49.3992 47.608 49.0992 47.602 48.9912 47.59C48.7632 47.134 48.6312 46.714 48.5952 46.33C48.0072 46.774 47.4612 47.116 46.9572 47.356C46.4652 47.596 46.1412 47.716 45.9852 47.716C44.9292 47.716 44.1612 47.434 43.6812 46.87C43.2132 46.294 42.9792 45.454 42.9792 44.35C42.9792 44.338 43.0332 42.802 43.1412 39.742C42.4452 39.742 41.8032 39.664 41.2152 39.508L41.2872 38.572C42.3072 38.392 43.0992 38.302 43.6632 38.302C44.2272 38.302 44.5872 38.314 44.7432 38.338C44.7432 38.626 44.7072 38.944 44.6352 39.292C44.5632 39.64 44.5212 39.808 44.5092 39.796L44.5272 43.684C44.5272 44.596 44.6412 45.262 44.8692 45.682C45.0972 46.102 45.5832 46.312 46.3272 46.312ZM59.4442 40.426H59.3722L57.3202 47.5H55.5382L53.0722 39.58L51.5602 39.436C51.5602 39.1 51.6622 38.74 51.8662 38.356H56.0062L56.0602 38.986C55.6762 39.154 55.2502 39.286 54.7822 39.382L56.0602 44.296L56.3842 45.88H56.5642L56.9242 44.278L58.7422 38.356C58.8862 38.344 58.9882 38.338 59.0482 38.338L60.2902 38.374L62.2162 44.296L62.6122 45.88H62.7742L63.0622 44.278L64.5742 39.382L63.0622 38.986L63.1162 38.356H67.1662C67.3702 38.74 67.4722 39.1 67.4722 39.436C66.9802 39.496 66.4882 39.538 65.9962 39.562L63.5302 47.5H61.7482L59.4442 40.426Z" fill="black"/>
<path d="M18.886 65.715L21.13 56.603C20.6767 56.5123 20.1667 56.3763 19.6 56.195L19.651 55.6H23.901C24.0937 55.9627 24.19 56.3027 24.19 56.62C23.5667 56.654 23.0227 56.688 22.558 56.722L19.6 67.5H18.002L15.078 57.521L12.426 67.5H10.658L7.615 56.603C7.16167 56.5123 6.65167 56.3763 6.085 56.195L6.136 55.6H10.556C10.7487 55.9627 10.845 56.3027 10.845 56.62C10.2897 56.654 9.77967 56.688 9.315 56.722L11.474 65.715H11.542C11.9047 64.151 12.392 62.264 13.004 60.054C13.6273 57.844 14.041 56.365 14.245 55.617H16.081L18.818 65.715H18.886ZM28.8505 66.684C29.8025 66.684 30.4429 66.3893 30.7715 65.8C31.1115 65.1993 31.2815 64.3493 31.2815 63.25C31.2815 61.5047 30.8962 60.411 30.1255 59.969C29.8082 59.7877 29.3605 59.697 28.7825 59.697C28.2159 59.697 27.6775 59.816 27.1675 60.054C26.7142 60.9267 26.4875 61.941 26.4875 63.097C26.4875 64.2077 26.6349 65.0633 26.9295 65.664C27.2695 66.344 27.9099 66.684 28.8505 66.684ZM24.9235 63.25C24.9235 61.8107 25.2522 60.6887 25.9095 59.884C26.5669 59.068 27.5812 58.66 28.9525 58.66C30.3239 58.66 31.3155 59.034 31.9275 59.782C32.5395 60.5187 32.8455 61.6123 32.8455 63.063C32.8455 64.5137 32.5169 65.6527 31.8595 66.48C31.2135 67.3073 30.2275 67.721 28.9015 67.721C27.5755 67.721 26.5782 67.3357 25.9095 66.565C25.2522 65.7943 24.9235 64.6893 24.9235 63.25ZM39.375 58.66C40.463 58.66 41.2507 58.932 41.738 59.476C42.2253 60.0087 42.469 60.8247 42.469 61.924C42.469 62.2413 42.4237 63.7147 42.333 66.344L43.761 66.48C43.761 66.7973 43.6647 67.1373 43.472 67.5H39.562L39.511 66.905C40.0323 66.7237 40.5423 66.5877 41.041 66.497C40.973 63.5277 40.9107 61.8787 40.854 61.55C40.8087 61.21 40.7293 60.9153 40.616 60.666C40.5027 60.4167 40.3327 60.241 40.106 60.139C39.8793 60.037 39.579 59.986 39.205 59.986C38.457 59.986 37.7317 60.1673 37.029 60.53C36.961 63.114 36.9157 65.052 36.893 66.344L38.321 66.48C38.321 66.7973 38.2247 67.1373 38.032 67.5H34.122L34.071 66.905C34.5923 66.7237 35.1023 66.5877 35.601 66.497C35.533 63.6183 35.4763 61.4877 35.431 60.105C34.8077 60.071 34.309 60.003 33.935 59.901L34.003 59.017C34.615 58.847 35.5047 58.762 36.672 58.762C36.808 58.966 36.91 59.2607 36.978 59.646C37.4653 59.3853 37.9527 59.1587 38.44 58.966C38.9387 58.762 39.2503 58.66 39.375 58.66ZM47.6066 57.249C47.3119 57.317 47.0229 57.351 46.7396 57.351C46.4676 57.351 46.1956 57.334 45.9236 57.3C45.8556 56.9827 45.8216 56.6653 45.8216 56.348C45.8216 56.0193 45.8329 55.7757 45.8556 55.617C46.1049 55.5603 46.3656 55.532 46.6376 55.532C46.9209 55.532 47.2212 55.5433 47.5386 55.566C47.6066 55.8607 47.6406 56.1497 47.6406 56.433C47.6406 56.705 47.6292 56.977 47.6066 57.249ZM44.5126 59.034C45.4759 58.864 46.2239 58.779 46.7566 58.779C47.2892 58.779 47.6292 58.7903 47.7766 58.813C47.7766 59.085 47.7426 59.3853 47.6746 59.714C47.6066 60.0427 47.5669 60.2013 47.5556 60.19L47.4026 66.344L48.8306 66.48C48.8306 66.7973 48.7342 67.1373 48.5416 67.5H44.6316L44.5806 66.905C45.1019 66.7237 45.6119 66.5877 46.1106 66.497C46.0426 63.6637 45.9859 61.5387 45.9406 60.122C45.2832 60.122 44.7846 60.054 44.4446 59.918L44.5126 59.034ZM55.0801 58.66C56.1681 58.66 56.9557 58.932 57.4431 59.476C57.9304 60.0087 58.1741 60.8247 58.1741 61.924C58.1741 62.2413 58.1287 63.7147 58.0381 66.344L59.4661 66.48C59.4661 66.7973 59.3697 67.1373 59.1771 67.5H55.2671L55.2161 66.905C55.7374 66.7237 56.2474 66.5877 56.7461 66.497C56.6781 63.5277 56.6157 61.8787 56.5591 61.55C56.5137 61.21 56.4344 60.9153 56.3211 60.666C56.2077 60.4167 56.0377 60.241 55.8111 60.139C55.5844 60.037 55.2841 59.986 54.9101 59.986C54.1621 59.986 53.4367 60.1673 52.7341 60.53C52.6661 63.114 52.6207 65.052 52.5981 66.344L54.0261 66.48C54.0261 66.7973 53.9297 67.1373 53.7371 67.5H49.8271L49.7761 66.905C50.2974 66.7237 50.8074 66.5877 51.3061 66.497C51.2381 63.6183 51.1814 61.4877 51.1361 60.105C50.5127 60.071 50.0141 60.003 49.6401 59.901L49.7081 59.017C50.3201 58.847 51.2097 58.762 52.3771 58.762C52.5131 58.966 52.6151 59.2607 52.6831 59.646C53.1704 59.3853 53.6577 59.1587 54.1451 58.966C54.6437 58.762 54.9554 58.66 55.0801 58.66ZM64.7396 66.463L66.2526 66.429C67.8166 66.429 68.5986 67.075 68.5986 68.367C68.5986 68.9677 68.338 69.523 67.8166 70.033C67.3066 70.5543 66.6946 70.9453 65.9806 71.206C65.2666 71.4667 64.598 71.597 63.9746 71.597C63.3626 71.597 62.7903 71.5063 62.2576 71.325C61.725 71.155 61.2716 70.8717 60.8976 70.475C60.5236 70.0783 60.3366 69.6193 60.3366 69.098C60.3366 68.9733 60.535 68.6447 60.9316 68.112C61.3396 67.5907 61.606 67.2847 61.7306 67.194C61.6286 67.126 61.4303 66.9333 61.1356 66.616C60.841 66.2873 60.6766 66.0607 60.6426 65.936C60.926 65.4147 61.3736 64.9047 61.9856 64.406C61.079 63.862 60.6256 62.9667 60.6256 61.72C60.6256 60.7227 60.943 59.9633 61.5776 59.442C62.2123 58.9207 63.0056 58.66 63.9576 58.66C64.9096 58.66 65.6463 58.813 66.1676 59.119C67.0743 58.9377 67.964 58.847 68.8366 58.847C69.052 58.847 69.1596 58.9773 69.1596 59.238C69.1596 59.6913 69.0746 60.003 68.9046 60.173L66.9496 59.85C67.3576 60.3713 67.5616 60.9947 67.5616 61.72C67.5616 62.8533 67.2273 63.6693 66.5586 64.168C65.89 64.6553 65.0683 64.899 64.0936 64.899C63.7876 64.899 63.425 64.8593 63.0056 64.78C62.8356 65.1313 62.6203 65.511 62.3596 65.919C62.5636 66.2817 63.357 66.463 64.7396 66.463ZM66.8986 69.591C67.012 69.2737 67.0686 68.945 67.0686 68.605C67.0686 68.2763 66.9383 68.01 66.6776 67.806C66.417 67.602 66.0826 67.5 65.6746 67.5C64.054 67.5 63.0623 67.483 62.6996 67.449C62.3936 67.9363 62.1783 68.3443 62.0536 68.673C61.9403 69.013 61.8836 69.2057 61.8836 69.251C61.8836 69.693 62.0933 70.0217 62.5126 70.237C62.932 70.4523 63.4136 70.56 63.9576 70.56C64.513 70.56 65.0683 70.4693 65.6236 70.288C66.1903 70.1067 66.6153 69.8743 66.8986 69.591ZM66.0316 61.788C66.0316 60.3827 65.3856 59.68 64.0936 59.68C62.8016 59.68 62.1556 60.36 62.1556 61.72C62.1556 62.4113 62.3256 62.944 62.6656 63.318C63.0056 63.692 63.4986 63.879 64.1446 63.879C65.4026 63.879 66.0316 63.182 66.0316 61.788Z" fill="black"/>
<path d="M0 23.7273L12.6667 13.7677L31.0909 0L38 5.56566L34.8333 8.49495L30.803 5.56566L0 29V23.7273Z" fill="black"/>
<path d="M13 22L9 24.9032V49H13V22Z" fill="black"/>
<path d="M0 52H77" stroke="black" stroke-width="2"/>
<path d="M12 15.5V6.5H20V9.5L12 15.5Z" fill="black"/>
<rect x="43" y="14" width="3" height="3" fill="black"/>
<rect x="47" y="18" width="3" height="3" fill="black"/>
<rect x="43" y="18" width="3" height="3" fill="black"/>
<rect x="47" y="14" width="3" height="3" fill="black"/>
<path d="M17 29V23.4343L47.1422 0L77 23.7273V29L47.1422 6.15152L17 29Z" fill="black"/>
</svg>
